<mxfile host="drawio-plugin" modified="2022-04-11T09:18:12.724Z" agent="5.0 (Windows NT 6.2; Win64; x64) AppleWebKit/537.36 (KHTML, like Gecko) Chrome/89.0.4389.114 Safari/537.36" etag="J5LV7BzTRt32nEKfJkqv" version="15.5.4" type="embed"><diagram id="C5RBs43oDa-KdzZeNtuy" name="Page-1"><mxGraphModel dx="2725" dy="787" grid="1" gridSize="10" guides="1" tooltips="1" connect="1" arrows="1" fold="1" page="1" pageScale="1" pageWidth="827" pageHeight="1169" math="0" shadow="0"><root><mxCell id="WIyWlLk6GJQsqaUBKTNV-0"/><mxCell id="WIyWlLk6GJQsqaUBKTNV-1" parent="WIyWlLk6GJQsqaUBKTNV-0"/><mxCell id="1" value="" style="edgeStyle=orthogonalEdgeStyle;rounded=0;orthogonalLoop=1;jettySize=auto;html=1;" edge="1" parent="WIyWlLk6GJQsqaUBKTNV-1" source="us1KMaRaIffKch248EVU-10" target="0"><mxGeometry relative="1" as="geometry"/></mxCell><mxCell id="us1KMaRaIffKch248EVU-10" value="Index Check via scraperapi&lt;br&gt;" style="whiteSpace=wrap;html=1;rounded=1;shadow=0;strokeWidth=1;glass=0;" parent="WIyWlLk6GJQsqaUBKTNV-1" vertex="1"><mxGeometry x="292.5" y="40" width="185" height="60" as="geometry"/></mxCell><mxCell id="z_KAuhuDqd6TNWYJx3mP-16" value="" style="edgeStyle=orthogonalEdgeStyle;rounded=0;orthogonalLoop=1;jettySize=auto;html=1;entryX=0.5;entryY=0;entryDx=0;entryDy=0;endArrow=none;startArrow=none;" parent="WIyWlLk6GJQsqaUBKTNV-1" source="0" edge="1"><mxGeometry relative="1" as="geometry"><mxPoint x="385" y="140" as="sourcePoint"/><mxPoint x="385" y="160" as="targetPoint"/></mxGeometry></mxCell><mxCell id="4" value="" style="edgeStyle=orthogonalEdgeStyle;rounded=0;orthogonalLoop=1;jettySize=auto;html=1;" edge="1" parent="WIyWlLk6GJQsqaUBKTNV-1" source="0" target="3"><mxGeometry relative="1" as="geometry"/></mxCell><mxCell id="8" value="" style="edgeStyle=orthogonalEdgeStyle;rounded=0;orthogonalLoop=1;jettySize=auto;html=1;" edge="1" parent="WIyWlLk6GJQsqaUBKTNV-1" source="0" target="7"><mxGeometry relative="1" as="geometry"/></mxCell><mxCell id="0" value="indexed?" style="rhombus;whiteSpace=wrap;html=1;rounded=1;shadow=0;strokeWidth=1;glass=0;" vertex="1" parent="WIyWlLk6GJQsqaUBKTNV-1"><mxGeometry x="345" y="130" width="80" height="80" as="geometry"/></mxCell><mxCell id="2" value="" style="edgeStyle=orthogonalEdgeStyle;rounded=0;orthogonalLoop=1;jettySize=auto;html=1;entryX=0.5;entryY=0;entryDx=0;entryDy=0;endArrow=none;" edge="1" parent="WIyWlLk6GJQsqaUBKTNV-1" source="us1KMaRaIffKch248EVU-10" target="0"><mxGeometry relative="1" as="geometry"><mxPoint x="385" y="100" as="sourcePoint"/><mxPoint x="385" y="160" as="targetPoint"/></mxGeometry></mxCell><mxCell id="10" value="" style="edgeStyle=orthogonalEdgeStyle;rounded=0;orthogonalLoop=1;jettySize=auto;html=1;" edge="1" parent="WIyWlLk6GJQsqaUBKTNV-1" source="3" target="9"><mxGeometry relative="1" as="geometry"/></mxCell><mxCell id="3" value="Check Metrics" style="whiteSpace=wrap;html=1;rounded=1;shadow=0;strokeWidth=1;glass=0;" vertex="1" parent="WIyWlLk6GJQsqaUBKTNV-1"><mxGeometry x="83.75" y="147.5" width="165" height="45" as="geometry"/></mxCell><mxCell id="5" value="Yes" style="text;html=1;strokeColor=none;fillColor=none;align=center;verticalAlign=middle;whiteSpace=wrap;rounded=0;" vertex="1" parent="WIyWlLk6GJQsqaUBKTNV-1"><mxGeometry x="292.5" y="172" width="60" height="30" as="geometry"/></mxCell><mxCell id="6" value="No" style="text;html=1;strokeColor=none;fillColor=none;align=center;verticalAlign=middle;whiteSpace=wrap;rounded=0;" vertex="1" parent="WIyWlLk6GJQsqaUBKTNV-1"><mxGeometry x="425" y="172" width="60" height="30" as="geometry"/></mxCell><mxCell id="7" value="No" style="whiteSpace=wrap;html=1;rounded=1;shadow=0;strokeWidth=1;glass=0;" vertex="1" parent="WIyWlLk6GJQsqaUBKTNV-1"><mxGeometry x="485" y="140" width="120" height="60" as="geometry"/></mxCell><mxCell id="12" value="" style="edgeStyle=orthogonalEdgeStyle;rounded=0;orthogonalLoop=1;jettySize=auto;html=1;" edge="1" parent="WIyWlLk6GJQsqaUBKTNV-1" source="9" target="11"><mxGeometry relative="1" as="geometry"/></mxCell><mxCell id="9" value="&lt;div&gt;&lt;span&gt;- Digimetr API (majestic)&lt;/span&gt;&lt;/div&gt;&lt;div&gt;&lt;span&gt;&#9;&lt;/span&gt;- myaddr API (moz)&lt;/div&gt;&lt;div&gt;&lt;div&gt;-&amp;nbsp;&amp;nbsp;&lt;span&gt;uclassify API (&lt;/span&gt;&lt;span&gt;Category &amp;amp; Language)&lt;/span&gt;&lt;/div&gt;&lt;/div&gt;&lt;div&gt;&lt;span&gt;- Get server country (Location)&lt;/span&gt;&lt;/div&gt;&lt;div&gt;&lt;span&gt;- get ext. link count&lt;/span&gt;&lt;/div&gt;" style="whiteSpace=wrap;html=1;rounded=1;shadow=0;strokeWidth=1;glass=0;" vertex="1" parent="WIyWlLk6GJQsqaUBKTNV-1"><mxGeometry x="50" y="230" width="232.5" height="110" as="geometry"/></mxCell><mxCell id="11" value="Add pricing&amp;nbsp;" style="whiteSpace=wrap;html=1;rounded=1;shadow=0;strokeWidth=1;glass=0;" vertex="1" parent="WIyWlLk6GJQsqaUBKTNV-1"><mxGeometry x="106.25" y="370" width="120" height="60" as="geometry"/></mxCell></root></mxGraphModel></diagram></mxfile>